<svg width="20" height="20" viewBox="0 0 20 20" fill="none" xmlns="http://www.w3.org/2000/svg">
<path d="M9.99951 3.40039C11.3802 3.40039 12.7048 3.9427 13.6812 4.9082C14.6575 5.87386 15.2065 7.18416 15.2065 8.5498C15.2065 12.1584 12.0492 15.142 10.6519 16.2861C10.4512 16.4504 10.351 16.5331 10.2017 16.5752C10.0856 16.6079 9.91451 16.6078 9.79834 16.5752C9.64918 16.5332 9.54803 16.4498 9.34814 16.2861C7.95086 15.142 4.79369 12.1583 4.79346 8.5498C4.79346 7.18416 5.34246 5.87386 6.31885 4.9082C7.2951 3.94292 8.61905 3.40049 9.99951 3.40039ZM9.99951 6.37598C9.11098 6.37598 8.39015 7.09585 8.39014 7.98438C8.39014 8.87291 9.11097 9.59277 9.99951 9.59277C10.888 9.5927 11.6079 8.87286 11.6079 7.98438C11.6079 7.0959 10.888 6.37605 9.99951 6.37598Z" fill="#9D6FFF"/>
</svg>
