<svg width="24" height="24" viewBox="0 0 24 24" fill="none" xmlns="http://www.w3.org/2000/svg">
<path d="M14.1419 18.584C14.2427 18.1539 14.6727 17.8866 15.1029 17.9873C15.5328 18.088 15.7999 18.5183 15.6996 18.9482C15.3064 20.628 13.7999 21.8798 11.9994 21.8799C10.1988 21.8799 8.69234 20.628 8.29917 18.9482C8.19879 18.5182 8.46583 18.088 8.89585 17.9873C9.32595 17.8867 9.75602 18.1539 9.85678 18.584C10.0844 19.5564 10.9586 20.2803 11.9994 20.2803C13.0401 20.2802 13.9143 19.5564 14.1419 18.584ZM12.0003 2C16.3081 2.00004 19.8001 5.49201 19.8001 9.7998V13.4688L20.1517 13.8203C20.2519 13.9205 20.368 14.0329 20.4623 14.1641C20.6253 14.3911 20.7312 14.6516 20.7757 14.9229C20.8019 15.0822 20.8001 15.2416 20.8001 15.3857C20.8001 15.7066 20.8103 16.0638 20.7054 16.375C20.5262 16.9064 20.1099 17.3258 19.5765 17.5059C19.3436 17.5844 19.0843 17.5977 18.8353 17.5996H5.16538C4.91657 17.5977 4.65804 17.5844 4.42514 17.5059C3.89289 17.3263 3.47401 16.9078 3.29429 16.375C3.18942 16.0638 3.20054 15.7066 3.20054 15.3857C3.20053 15.2431 3.19779 15.0825 3.22397 14.9229C3.26879 14.6498 3.37639 14.3897 3.53843 14.1641C3.63258 14.0331 3.74737 13.9219 3.84897 13.8203L4.20054 13.4688V9.7998C4.20054 5.49199 7.69253 2.00001 12.0003 2ZM12.0003 3.59961C8.57618 3.59962 5.80014 6.37565 5.80014 9.7998V13.5225C5.80008 13.9127 5.64472 14.2862 5.36948 14.5615L4.97983 14.9512C4.91719 15.0138 4.88277 15.0485 4.85776 15.0752C4.84578 15.088 4.83965 15.0948 4.83725 15.0977C4.81971 15.1221 4.80816 15.1509 4.80307 15.1816C4.80274 15.1855 4.80165 15.1943 4.80112 15.2109C4.79996 15.2477 4.80014 15.2966 4.80014 15.3857C4.80014 15.5876 4.80102 15.706 4.806 15.7939C4.81063 15.8754 4.81701 15.8826 4.81089 15.8643C4.83083 15.923 4.87756 15.9693 4.93686 15.9893C4.91787 15.9829 4.92404 15.9895 5.00522 15.9941C5.09227 15.9991 5.20951 16 5.40952 16H18.5912C18.791 16 18.9082 15.9991 18.9955 15.9941C19.0768 15.9895 19.0837 15.9829 19.0648 15.9893C19.1227 15.9696 19.1695 15.9243 19.1898 15.8643C19.1836 15.8828 19.19 15.8757 19.1947 15.7939C19.1997 15.706 19.2005 15.5876 19.2005 15.3857C19.2005 15.2971 19.1998 15.2483 19.1986 15.2119C19.1976 15.1805 19.1967 15.1762 19.1976 15.1816C19.1922 15.1491 19.1799 15.1207 19.1634 15.0977C19.167 15.1026 19.1645 15.0992 19.1429 15.0762C19.1176 15.0492 19.0836 15.0139 19.0208 14.9512L18.6312 14.5615C18.3556 14.2859 18.2006 13.9123 18.2005 13.5225V9.7998C18.2005 6.37566 15.4245 3.59965 12.0003 3.59961Z" fill="#181814"/>
</svg>
