<svg width="11" height="11" viewBox="0 0 11 11" fill="none" xmlns="http://www.w3.org/2000/svg">
<path d="M5.45121 0C5.84869 2.23412e-07 6.17092 0.322224 6.17092 0.719706V4.73502H10.1904C10.5879 4.73502 10.9101 5.05732 10.9102 5.45473C10.9102 5.85221 10.5879 6.17443 10.1904 6.17443H6.17092V10.1904C6.17082 10.5879 5.84864 10.9102 5.45121 10.9102C5.05379 10.9102 4.7316 10.5879 4.73151 10.1904V6.17443H0.719706C0.322223 6.17443 0 5.85221 0 5.45473C9.49438e-05 5.05732 0.322282 4.73502 0.719706 4.73502H4.73151V0.719706C4.73151 0.322224 5.05373 1.73745e-08 5.45121 0Z" fill="#2A2924"/>
</svg>
