<svg width="24" height="24" viewBox="0 0 24 24" fill="none" xmlns="http://www.w3.org/2000/svg">
<path fill-rule="evenodd" clip-rule="evenodd" d="M8.68692 17.6702C9.7466 17.6702 10.6063 18.5291 10.6065 19.5887L10.5962 19.7854C10.4979 20.753 9.68047 21.5083 8.68692 21.5083L8.49126 21.498C7.52356 21.3998 6.76838 20.5823 6.76838 19.5887C6.7686 18.5292 7.62744 17.6704 8.68692 17.6702ZM8.68692 19.0409C8.38456 19.0411 8.13929 19.2864 8.13906 19.5887C8.13906 19.8913 8.38442 20.1374 8.68692 20.1376C8.98962 20.1376 9.23582 19.8914 9.23582 19.5887C9.23559 19.2862 8.98948 19.0409 8.68692 19.0409Z" fill="white"/>
<path fill-rule="evenodd" clip-rule="evenodd" d="M17.8008 17.6702C18.8605 17.6702 19.7202 18.5291 19.7204 19.5887L19.7101 19.7854C19.6118 20.753 18.7943 21.5083 17.8008 21.5083L17.6051 21.498C16.6374 21.3998 15.8823 20.5823 15.8823 19.5887C15.8825 18.5292 16.7413 17.6704 17.8008 17.6702ZM17.8008 19.0409C17.4984 19.0411 17.2532 19.2864 17.2529 19.5887C17.2529 19.8913 17.4983 20.1374 17.8008 20.1376C18.1035 20.1376 18.3497 19.8914 18.3497 19.5887C18.3495 19.2862 18.1034 19.0409 17.8008 19.0409Z" fill="white"/>
<path fill-rule="evenodd" clip-rule="evenodd" d="M3.72733 2.4917C4.93046 2.4917 5.96812 3.33841 6.20816 4.51735L6.50062 5.956H19.1911C20.8545 5.956 22.0653 7.53316 21.6358 9.1402L20.0726 14.9906C19.7766 16.0977 18.7738 16.8679 17.6278 16.8679H9.06796C7.86498 16.8679 6.82837 16.021 6.58816 14.8423L4.55427 4.8541C4.47426 4.46111 4.12837 4.17854 3.72733 4.17854H3.12076C2.65484 4.17854 2.27734 3.80104 2.27734 3.33512C2.27734 2.8692 2.65484 2.4917 3.12076 2.4917H3.72733ZM8.24101 14.5055C8.32112 14.8984 8.667 15.1801 9.06796 15.1801H17.6278C18.0097 15.1801 18.3436 14.9239 18.4424 14.555L20.0067 8.70459C20.1497 8.16896 19.7455 7.64284 19.1911 7.64284H6.84355L8.24101 14.5055Z" fill="white"/>
</svg>
