<svg width="24" height="24" viewBox="0 0 24 24" fill="none" xmlns="http://www.w3.org/2000/svg">
<path d="M10.5708 11.6136C10.9311 11.6136 11.223 11.9055 11.2231 12.2659V15.7964C11.2231 16.1568 10.9311 16.4487 10.5708 16.4487C10.2105 16.4487 9.91852 16.1568 9.91852 15.7964V12.2659C9.91856 11.9055 10.2105 11.6136 10.5708 11.6136Z" fill="#2A2924"/>
<path d="M13.4284 11.6136C13.7887 11.6136 14.0806 11.9055 14.0807 12.2659V15.7964C14.0807 16.1568 13.7887 16.4487 13.4284 16.4487C13.0681 16.4487 12.7761 16.1568 12.7761 15.7964V12.2659C12.7762 11.9055 13.0681 11.6136 13.4284 11.6136Z" fill="#2A2924"/>
<path fill-rule="evenodd" clip-rule="evenodd" d="M16.286 9.00685C16.6462 9.00685 16.9381 9.29897 16.9383 9.65913V16.1453C16.9383 16.5337 16.9389 16.8647 16.9168 17.1352C16.894 17.4134 16.8445 17.6853 16.7121 17.9452C16.5125 18.337 16.1932 18.6561 15.8018 18.8555C15.5419 18.9879 15.27 19.0375 14.9918 19.0602C14.7212 19.0823 14.3903 19.0817 14.0018 19.0817H9.99737C9.60881 19.0817 9.27732 19.0823 9.00661 19.0602C8.72846 19.0375 8.4565 18.9879 8.19664 18.8555C7.80456 18.6557 7.48713 18.3362 7.28791 17.9452C7.15539 17.6851 7.1052 17.413 7.08243 17.1344C7.06032 16.8637 7.06093 16.5327 7.06093 16.1437V9.65913C7.06114 9.29897 7.353 9.00685 7.7132 9.00685H16.286ZM8.36548 16.1437C8.36548 16.5544 8.36622 16.8231 8.383 17.0285C8.39914 17.2259 8.42672 17.3071 8.4499 17.3527C8.52461 17.4993 8.64371 17.6186 8.78918 17.6927C8.83454 17.7158 8.91567 17.7435 9.11333 17.7596C9.31857 17.7764 9.58732 17.7772 9.99737 17.7772H14.0018C14.4119 17.7772 14.6808 17.7764 14.8859 17.7596C15.0829 17.7435 15.1638 17.7159 15.2092 17.6927C15.3554 17.6182 15.4749 17.4986 15.5493 17.3527C15.5724 17.3072 15.6001 17.2263 15.6162 17.0293C15.633 16.8242 15.6337 16.5554 15.6337 16.1453V10.3122H8.36548V16.1437Z" fill="#2A2924"/>
<path fill-rule="evenodd" clip-rule="evenodd" d="M12.714 4.91797C13.0378 4.91797 13.3133 4.91766 13.5399 4.9331C13.7724 4.94896 14.0008 4.98366 14.2248 5.07646C14.7349 5.28776 15.1398 5.69295 15.351 6.20261C15.4438 6.42658 15.4785 6.65506 15.4943 6.88755C15.4991 6.9577 15.5001 7.03262 15.5023 7.11214H17.5977C17.9581 7.11214 18.25 7.40409 18.25 7.76442C18.25 8.12475 17.9581 8.41669 17.5977 8.41669H6.40228C6.04195 8.41669 5.75 8.12475 5.75 7.76442C5.75 7.40409 6.04195 7.11214 6.40228 7.11214H8.49689C8.49913 7.03261 8.50007 6.9577 8.50486 6.88755C8.52072 6.65508 8.55543 6.42663 8.64822 6.20261C8.85935 5.69304 9.26419 5.28778 9.77437 5.07646C9.9984 4.98368 10.2268 4.94896 10.4593 4.9331C10.6859 4.91767 10.9614 4.91797 11.2852 4.91797H12.714ZM11.2852 6.22252C10.9434 6.22252 10.7197 6.22274 10.5477 6.23447C10.382 6.24577 10.3123 6.26553 10.2737 6.28146C10.0838 6.36014 9.93213 6.51146 9.85322 6.70198C9.83725 6.74052 9.81756 6.81013 9.80623 6.97595C9.80439 7.0029 9.80436 7.03141 9.80304 7.06117H14.1962C14.1948 7.03143 14.1948 7.00288 14.193 6.97595C14.1816 6.81023 14.162 6.74056 14.146 6.70198C14.0671 6.51155 13.9155 6.36018 13.7255 6.28146C13.6869 6.26551 13.6173 6.24579 13.4515 6.23447C13.2796 6.22274 13.0558 6.22252 12.714 6.22252H11.2852Z" fill="#2A2924"/>
</svg>
