<svg width="28" height="28" viewBox="0 0 28 28" fill="none" xmlns="http://www.w3.org/2000/svg">
<path d="M10.4999 19.8333H17.4999M10.4999 16.3333H17.4999M15.167 3.50102C15.0556 3.5 14.9302 3.5 14.7871 3.5H9.56681C8.26002 3.5 7.60614 3.5 7.10702 3.75432C6.66797 3.97802 6.31127 4.33472 6.08757 4.77376C5.83325 5.27289 5.83325 5.92677 5.83325 7.23356V20.7669C5.83325 22.0737 5.83325 22.7267 6.08757 23.2259C6.31128 23.6649 6.66797 24.0222 7.10702 24.2459C7.60566 24.5 8.25876 24.5 9.56301 24.5L18.4369 24.5C19.7411 24.5 20.3932 24.5 20.8919 24.2459C21.3309 24.0222 21.6888 23.6649 21.9125 23.2259C22.1666 22.7272 22.1666 22.0751 22.1666 20.7708V10.88C22.1666 10.7369 22.1665 10.6115 22.1654 10.5M15.167 3.50102C15.5001 3.50405 15.7099 3.51641 15.9111 3.56472C16.1492 3.62187 16.3774 3.71614 16.5862 3.84408C16.8216 3.98833 17.0237 4.19045 17.427 4.59375L21.0734 8.24015C21.477 8.6437 21.6776 8.84492 21.8219 9.08039C21.9498 9.28916 22.0445 9.5168 22.1016 9.75488C22.1499 9.95608 22.1624 10.167 22.1654 10.5M15.167 3.50102L15.1666 6.76691C15.1666 8.0737 15.1666 8.72684 15.4209 9.22597C15.6446 9.66502 16.0013 10.0222 16.4403 10.2459C16.939 10.5 17.5921 10.5 18.8963 10.5H22.1654" stroke="#7B7A73" stroke-width="1.9" stroke-linecap="round" stroke-linejoin="round"/>
</svg>
