<svg width="28" height="28" viewBox="0 0 28 28" fill="none" xmlns="http://www.w3.org/2000/svg">
<path fill-rule="evenodd" clip-rule="evenodd" d="M11.1312 4.34563C12.8051 2.99488 15.1954 2.99475 16.8693 4.34563L26.0236 11.7332C26.4367 12.0667 26.5013 12.6723 26.168 13.0855C25.8345 13.4987 25.2301 13.5632 24.8168 13.2299L23.6147 12.2591V19.8004C23.6147 20.9313 23.6279 21.741 23.3975 22.41C23.1085 23.2492 22.535 23.9731 21.747 24.3658C21.3951 24.5411 21.0334 24.6072 20.6705 24.637C20.3205 24.6657 19.8963 24.6651 19.4085 24.6651H15.4242C15.409 24.6655 15.3937 24.6675 15.3784 24.6675H12.6232C12.608 24.6675 12.5926 24.6655 12.5774 24.6651H8.59313C8.10513 24.6651 7.68001 24.6657 7.32999 24.637C6.96726 24.6072 6.60629 24.5409 6.25467 24.3658C5.4666 23.9731 4.89321 23.2493 4.60413 22.41C4.37371 21.741 4.38695 20.9312 4.38695 19.8004V12.2579L3.18368 13.2299C2.77042 13.5633 2.16603 13.4986 1.83249 13.0855C1.49893 12.6722 1.56357 12.0667 1.97688 11.7332L11.1312 4.34563ZM14.0099 15.6649C13.0776 15.6652 12.3216 16.3763 12.3213 17.2532V22.6328C12.3216 22.6904 12.3686 22.7361 12.4282 22.7422H15.5929C15.6522 22.7358 15.6996 22.6902 15.6998 22.6328V17.2532C15.6995 16.3763 14.9423 15.6651 14.0099 15.6649Z" fill="#181814"/>
</svg>
