<svg width="28" height="28" viewBox="0 0 28 28" fill="none" xmlns="http://www.w3.org/2000/svg">
<path fill-rule="evenodd" clip-rule="evenodd" d="M11.1309 4.34563C12.8049 2.99488 15.1952 2.99475 16.8691 4.34563L26.0234 11.7332C26.4365 12.0667 26.5011 12.6723 26.1677 13.0855C25.8343 13.4987 25.2298 13.5632 24.8166 13.2299L23.6145 12.2591V19.8004C23.6145 20.9313 23.6276 21.741 23.3973 22.41C23.1083 23.2492 22.5347 23.9731 21.7467 24.3658C21.3949 24.5411 21.0332 24.6072 20.6703 24.637C20.3202 24.6657 19.8961 24.6651 19.4083 24.6651H15.424C15.4087 24.6655 15.3935 24.6675 15.3782 24.6675H12.623C12.6078 24.6675 12.5923 24.6655 12.5772 24.6651H8.59289C8.10488 24.6651 7.67977 24.6657 7.32974 24.637C6.96701 24.6072 6.60605 24.5409 6.25443 24.3658C5.46636 23.9731 4.89297 23.2493 4.60389 22.41C4.37346 21.741 4.38671 20.9312 4.38671 19.8004V12.2579L3.18343 13.2299C2.77018 13.5633 2.16579 13.4986 1.83225 13.0855C1.49869 12.6722 1.56332 12.0667 1.97664 11.7332L11.1309 4.34563ZM15.6611 5.84122C14.6921 5.05932 13.308 5.05945 12.3389 5.84122L6.3096 10.706V19.8004C6.3096 21.0938 6.32342 21.4972 6.4223 21.7843C6.57232 22.2195 6.8408 22.5094 7.11257 22.6448C7.15838 22.6675 7.24839 22.7003 7.48705 22.7199C7.74025 22.7407 8.07335 22.7422 8.59289 22.7422H10.5991C10.5974 22.7084 10.5944 22.6744 10.5944 22.6401V17.6181C10.5947 15.7372 12.1192 14.2127 14 14.2125C15.8809 14.2127 17.4064 15.7372 17.4067 17.6181V22.6401C17.4067 22.6743 17.4037 22.7084 17.402 22.7422H19.4083C19.9275 22.7422 20.2597 22.7407 20.5129 22.7199C20.7524 22.7003 20.8429 22.6675 20.8886 22.6448C21.1602 22.5094 21.4289 22.2195 21.5789 21.7843C21.6777 21.4972 21.6916 21.0934 21.6916 19.8004V10.7071L15.6611 5.84122ZM14 16.1354C13.1814 16.1356 12.5176 16.7995 12.5173 17.6181V22.6401C12.5176 22.6939 12.5589 22.7365 12.6112 22.7422H15.3899C15.442 22.7362 15.4836 22.6937 15.4838 22.6401V17.6181C15.4835 16.7994 14.8186 16.1355 14 16.1354Z" fill="#7B7A73"/>
</svg>
