<svg width="28" height="28" viewBox="0 0 28 28" fill="none" xmlns="http://www.w3.org/2000/svg">
<path d="M25.25 10.6156C25.25 13.961 23.1089 16.9403 20.8845 19.1571C18.63 21.4039 16.1132 23.0421 15.0213 23.7075C14.3893 24.0925 13.6107 24.0925 12.9787 23.7075C11.8868 23.0421 9.37003 21.4039 7.11547 19.1571C4.89106 16.9403 2.75005 13.961 2.75 10.6156C2.75 8.71008 3.30877 7.1642 4.25673 6.03715C5.20215 4.91325 6.48854 4.26136 7.84193 4.06629C10.063 3.74624 12.4806 4.65148 14 6.70307C15.5194 4.65148 17.937 3.74624 20.1581 4.06629C21.5115 4.26136 22.7978 4.91325 23.7433 6.03715C24.6912 7.1642 25.25 8.71008 25.25 10.6156Z" fill="#181814"/>
</svg>
