<svg width="28" height="28" viewBox="0 0 28 28" fill="none" xmlns="http://www.w3.org/2000/svg">
<path d="M23.4137 10.6156C23.4137 9.07736 22.9678 7.96812 22.3374 7.21876C21.7045 6.46644 20.8381 6.02048 19.8957 5.88468C18.0021 5.61186 15.8262 6.60043 14.8453 8.90262C14.701 9.24126 14.3681 9.46091 14 9.46091C13.6319 9.46091 13.299 9.24126 13.1547 8.90262C12.1738 6.60043 9.99787 5.61186 8.10426 5.88468C7.16187 6.02048 6.29554 6.46644 5.66256 7.21876C5.03219 7.96812 4.58632 9.07736 4.58632 10.6156C4.58637 13.2002 6.27445 15.7258 8.41144 17.8555C10.5184 19.9553 12.896 21.5067 13.9339 22.1392C13.9609 22.1557 13.9834 22.1593 14 22.1593C14.0166 22.1593 14.0391 22.1557 14.0661 22.1392C15.104 21.5067 17.4816 19.9553 19.5886 17.8555C21.7255 15.7258 23.4136 13.2002 23.4137 10.6156ZM25.25 10.6156C25.25 13.961 23.1089 16.9403 20.8845 19.1571C18.63 21.4039 16.1132 23.0421 15.0213 23.7076C14.3893 24.0925 13.6107 24.0925 12.9787 23.7076C11.8868 23.0421 9.37003 21.4039 7.11547 19.1571C4.89106 16.9403 2.75005 13.961 2.75 10.6156C2.75 8.71008 3.30877 7.1642 4.25673 6.03715C5.20215 4.91325 6.48854 4.26136 7.84193 4.06629C10.063 3.74624 12.4806 4.65148 14 6.70307C15.5194 4.65148 17.937 3.74624 20.1581 4.06629C21.5115 4.26136 22.7978 4.91325 23.7433 6.03715C24.6912 7.1642 25.25 8.71008 25.25 10.6156Z" fill="#7B7A73"/>
</svg>
