<svg width="28" height="28" viewBox="0 0 28 28" fill="none" xmlns="http://www.w3.org/2000/svg">
<path d="M8.59955 8.96143C8.59955 11.9448 11.018 14.3633 14.0014 14.3633C16.9848 14.3633 19.4033 11.9448 19.4033 8.96143C19.4033 5.97806 16.9848 3.55957 14.0014 3.55957C11.018 3.55957 8.59955 5.97806 8.59955 8.96143Z" fill="#181814"/>
<path d="M23.3337 24.4402C23.3337 21.2185 19.155 18.4015 14.0003 18.4015C8.84567 18.4015 4.66699 21.2185 4.66699 24.4402M14.0014 14.3633C11.018 14.3633 8.59955 11.9448 8.59955 8.96143C8.59955 5.97806 11.018 3.55957 14.0014 3.55957C16.9848 3.55957 19.4033 5.97806 19.4033 8.96143C19.4033 11.9448 16.9848 14.3633 14.0014 14.3633Z" stroke="#181814" stroke-width="2.6" stroke-linecap="round" stroke-linejoin="round"/>
<path d="M14.0003 18.4014C19.155 18.4014 23.3337 21.2184 23.3337 24.44H4.66699C4.66699 21.2184 8.84567 18.4014 14.0003 18.4014Z" fill="#181814" stroke="#181814" stroke-width="2.6" stroke-linecap="round" stroke-linejoin="round"/>
</svg>
