<svg width="24" height="24" viewBox="0 0 24 24" fill="none" xmlns="http://www.w3.org/2000/svg">
<path d="M12 3C13.8565 3 15.6374 3.72901 16.9502 5.02734C18.2628 6.32556 18.9999 8.08692 19 9.92285C19 14.7746 14.7557 18.7869 12.877 20.3252C12.6073 20.546 12.4722 20.6563 12.2715 20.7129C12.1153 20.7569 11.8847 20.7569 11.7285 20.7129C11.5281 20.6564 11.3918 20.5452 11.123 20.3252C9.24429 18.7869 5 14.7746 5 9.92285C5 8.08696 5.73734 6.3266 7.0498 5.02832C8.36254 3.73001 10.1435 3.00002 12 3ZM12 7C10.8054 7 9.83691 7.96845 9.83691 9.16309C9.83691 10.3577 10.8054 11.3262 12 11.3262C13.1946 11.3262 14.1631 10.3577 14.1631 9.16309C14.1631 7.96845 13.1946 7 12 7Z" fill="#43423C"/>
</svg>
