<svg width="24" height="24" viewBox="0 0 24 24" fill="none" xmlns="http://www.w3.org/2000/svg">
<path d="M19.3105 5.40625C20.4151 5.40625 21.3105 6.30168 21.3105 7.40625V9.75488C20.1943 9.75509 19.2891 10.7602 19.2891 12C19.2891 13.2399 20.1943 14.2449 21.3105 14.2451V16.5938C21.3105 17.6983 20.4151 18.5938 19.3105 18.5938H4.68945C3.58488 18.5938 2.68945 17.6983 2.68945 16.5938V14.2441C3.8056 14.2438 4.70996 13.2398 4.70996 12C4.70992 10.7603 3.80557 9.75522 2.68945 9.75488V7.40625C2.68945 6.30168 3.58488 5.40625 4.68945 5.40625H19.3105Z" fill="url(#paint0_linear_1088_2093)"/>
<path d="M9.77637 12.0703C8.79199 12.0703 8.25586 11.3496 8.25586 10.3213C8.25586 9.27539 8.80957 8.56348 9.77637 8.56348C10.7783 8.56348 11.3057 9.27539 11.3145 10.3213C11.3057 11.3672 10.7607 12.0703 9.77637 12.0703ZM9.77637 11.209C10.1455 11.209 10.3301 10.8574 10.3301 10.3213C10.3301 9.78516 10.1631 9.41602 9.77637 9.4248C9.4248 9.4248 9.24023 9.80273 9.24023 10.3213C9.24023 10.8574 9.43359 11.209 9.77637 11.209ZM14.2148 15.4365C13.2217 15.4277 12.6855 14.7158 12.6943 13.6787C12.6855 12.6416 13.248 11.9209 14.2148 11.9209C15.2168 11.9209 15.7441 12.6416 15.7441 13.6787C15.7441 14.7246 15.1992 15.4277 14.2148 15.4365ZM14.2148 14.5664C14.584 14.5664 14.7598 14.2148 14.7686 13.6787C14.7598 13.1426 14.5928 12.7822 14.2148 12.7822C13.8545 12.7822 13.6699 13.1602 13.6699 13.6787C13.6699 14.2148 13.8721 14.5664 14.2148 14.5664ZM10.0978 15.1816C9.74207 15.1816 9.53225 14.7827 9.73384 14.4896L13.5031 9.00975C13.5855 8.88993 13.7216 8.81836 13.8671 8.81836C14.2228 8.81836 14.4326 9.21734 14.231 9.51042L10.4617 14.9903C10.3793 15.1101 10.2432 15.1816 10.0978 15.1816Z" fill="#FFE35A"/>
<defs>
<linearGradient id="paint0_linear_1088_2093" x1="12" y1="5.40625" x2="12" y2="18.5939" gradientUnits="userSpaceOnUse">
<stop stop-color="#FFAD3B"/>
<stop offset="1" stop-color="#FF9500"/>
</linearGradient>
</defs>
</svg>
