<svg width="15" height="15" viewBox="0 0 15 15" fill="none" xmlns="http://www.w3.org/2000/svg">
<path d="M7.2002 0C7.58679 3.06949e-07 7.90039 0.313597 7.90039 0.700195V6.5H13.7002C14.0868 6.5 14.4004 6.8136 14.4004 7.2002C14.4004 7.58679 14.0868 7.90039 13.7002 7.90039H7.90039V13.7002C7.90039 14.0868 7.58679 14.4004 7.2002 14.4004C6.8136 14.4004 6.5 14.0868 6.5 13.7002V7.90039H0.700195C0.313596 7.90039 0 7.58679 0 7.2002C0 6.8136 0.313596 6.5 0.700195 6.5H6.5V0.700195C6.5 0.313597 6.8136 1.68988e-08 7.2002 0Z" fill="black"/>
</svg>
