<svg width="20" height="20" viewBox="0 0 20 20" fill="none" xmlns="http://www.w3.org/2000/svg">
<path d="M15.2922 8.22956C15.2921 6.84606 14.7358 5.51769 13.7444 4.53712C12.7525 3.55625 11.4061 3.00347 10.0002 3.00347C8.59449 3.00349 7.24794 3.55631 6.25613 4.53712C5.26452 5.51783 4.7083 6.846 4.7083 8.22956C4.7083 10.1018 5.53007 11.8541 6.59203 13.3306C7.65048 14.8022 8.9078 15.9438 9.68434 16.5796C9.80787 16.6808 9.86679 16.7282 9.91356 16.7597C9.94512 16.7809 9.95357 16.7822 9.95357 16.7822C9.94665 16.7802 9.94833 16.7808 9.9594 16.7822C9.96998 16.7835 9.98435 16.7847 10.0002 16.7847C10.0159 16.7847 10.0297 16.7834 10.0403 16.7822C10.0516 16.7808 10.0532 16.7802 10.0461 16.7822C10.0488 16.7814 10.0553 16.7809 10.0869 16.7597C10.1334 16.7284 10.1923 16.6811 10.3161 16.5796C11.0927 15.9438 12.35 14.8022 13.4085 13.3306C14.4703 11.8542 15.2922 10.1018 15.2922 8.22956ZM11.2022 8.19956C11.2021 7.53576 10.664 6.99764 10.0002 6.99764C9.33648 6.99768 8.79834 7.53578 8.79833 8.19956C8.79833 8.86334 9.33647 9.40144 10.0002 9.40147C10.6641 9.40147 11.2022 8.86337 11.2022 8.19956ZM16.6575 8.22956C16.6575 10.4984 15.6672 12.5291 14.517 14.1283C13.3634 15.7322 12.0083 16.9594 11.1813 17.6365C10.9799 17.8015 10.7519 18.0023 10.417 18.0966C10.1627 18.1682 9.83782 18.1682 9.58349 18.0966C9.24847 18.0023 9.01889 17.8001 8.81916 17.6365C7.99226 16.9595 6.63712 15.7322 5.48347 14.1283C4.3332 12.529 3.34302 10.4984 3.34302 8.22956C3.34302 6.47891 4.04589 4.80164 5.29509 3.56609C6.54413 2.33077 8.23702 1.6382 10.0002 1.63818C11.7635 1.63818 13.4563 2.33075 14.7054 3.56609C15.9545 4.8016 16.6574 6.47915 16.6575 8.22956ZM12.5674 8.19956C12.5674 9.61758 11.4183 10.7668 10.0002 10.7668C8.58226 10.7667 7.43304 9.61755 7.43304 8.19956C7.43305 6.78157 8.58227 5.63239 10.0002 5.63235C11.4183 5.63235 12.5674 6.78155 12.5674 8.19956Z" fill="#181814"/>
</svg>
