<svg width="20" height="20" viewBox="0 0 20 20" fill="none" xmlns="http://www.w3.org/2000/svg">
<path d="M7.00693 15.7406C6.55299 16.0144 5.99297 15.6081 6.11244 15.0916L6.8187 12.0384C6.86879 11.8219 6.79509 11.5954 6.62718 11.4499L4.25775 9.39563C3.85724 9.04839 4.07081 8.39037 4.5989 8.34453L7.7324 8.07253C7.9539 8.0533 8.14662 7.91316 8.23317 7.70836L9.44758 4.83499C9.65406 4.34643 10.3464 4.34643 10.5529 4.83499L11.7673 7.70836C11.8539 7.91316 12.0466 8.0533 12.2681 8.07253L15.4016 8.34453C15.9297 8.39037 16.1433 9.04839 15.7427 9.39563L13.3733 11.4499C13.2054 11.5954 13.1317 11.8219 13.1818 12.0384L13.888 15.0916C14.0075 15.6081 13.4475 16.0144 12.9936 15.7406L10.3102 14.1219C10.1195 14.0069 9.88094 14.0069 9.69032 14.1219L7.00693 15.7406Z" fill="#FFC20D"/>
</svg>
