<svg width="20" height="20" viewBox="0 0 20 20" fill="none" xmlns="http://www.w3.org/2000/svg">
<path d="M8.65126 3.68701H13.8593C14.7432 3.68701 15.1845 3.68701 15.5221 3.85903C15.8191 4.01033 16.0612 4.25159 16.2125 4.54855C16.3843 4.88582 16.3843 5.32755 16.3843 6.2097V16.3126H6.12598V8.42178V6.21229C6.12598 5.32842 6.12598 4.88615 6.29799 4.54855C6.4493 4.25159 6.69056 4.01033 6.98752 3.85903C7.32511 3.68701 7.76738 3.68701 8.65126 3.68701Z" fill="#66DF8A"/>
<path d="M12.2583 11.8686V16.3126H3.5782V11.8686C3.5782 11.454 3.5782 11.2466 3.62792 11.0532C3.67198 10.8819 3.74449 10.7194 3.84252 10.5721C3.95307 10.406 4.1078 10.2669 4.41585 9.99012L6.23204 8.35847C6.8276 7.82342 7.1256 7.55569 7.46255 7.45413C7.75961 7.36459 8.07664 7.36459 8.3737 7.45413C8.71093 7.55578 9.00933 7.82364 9.6059 8.35959L11.4208 9.99012C11.7292 10.2672 11.8831 10.4059 11.9937 10.5721C12.0918 10.7194 12.1642 10.8819 12.2082 11.0532C12.258 11.2466 12.2583 11.454 12.2583 11.8686Z" fill="#85FF97"/>
</svg>
