<svg width="14" height="14" viewBox="0 0 14 14" fill="none" xmlns="http://www.w3.org/2000/svg">
<path d="M4.3807 11.551C5.15157 11.9956 6.04597 12.25 6.99979 12.25C9.89929 12.25 12.25 9.8995 12.25 7C12.25 4.10051 9.89949 1.75 7 1.75C4.1005 1.75 1.75 4.10051 1.75 7C1.75 7.95382 2.00436 8.84823 2.44895 9.6191L2.45067 9.62208C2.49345 9.69625 2.51502 9.73365 2.52479 9.769C2.534 9.80234 2.53658 9.83231 2.53422 9.86682C2.53168 9.9039 2.51918 9.94235 2.49356 10.0192L2.04508 11.3646L2.04452 11.3664C1.9499 11.6503 1.90258 11.7922 1.93631 11.8868C1.96571 11.9693 2.03098 12.0343 2.11344 12.0637C2.20781 12.0974 2.34911 12.0503 2.63174 11.9561L2.63525 11.9548L3.98069 11.5063C4.0573 11.4808 4.09625 11.4678 4.13326 11.4653C4.16777 11.4629 4.19754 11.466 4.23088 11.4753C4.26632 11.4851 4.30374 11.5066 4.37829 11.5496L4.3807 11.551Z" stroke="#43423C" stroke-linecap="round" stroke-linejoin="round"/>
</svg>
