<svg width="11" height="11" viewBox="0 0 11 11" fill="none" xmlns="http://www.w3.org/2000/svg">
<path d="M2.46515 9.96767C2.16252 10.1502 1.78918 9.87934 1.86882 9.53501L2.54945 6.5926C2.58284 6.44825 2.53371 6.29728 2.42177 6.20022L0.138552 4.22074C-0.12846 3.98924 0.0139194 3.55057 0.365984 3.52L3.38451 3.25798C3.53218 3.24516 3.66066 3.15173 3.71836 3.0152L4.88945 0.244325C5.02711 -0.0813822 5.48868 -0.0813823 5.62634 0.244324L6.79742 3.0152C6.85513 3.15173 6.98361 3.24516 7.13128 3.25798L10.1498 3.52C10.5019 3.55057 10.6442 3.98924 10.3772 4.22074L8.09402 6.20022C7.98207 6.29728 7.93294 6.44825 7.96633 6.5926L8.64696 9.53501C8.72661 9.87934 8.35326 10.1502 8.05064 9.96767L5.46451 8.40761C5.33743 8.33095 5.17836 8.33095 5.05128 8.40761L2.46515 9.96767Z" fill="#FFC20D"/>
</svg>
