<svg width="14" height="14" viewBox="0 0 14 14" fill="none" xmlns="http://www.w3.org/2000/svg">
<path d="M8.74997 5.83322L6.41664 8.16655L5.24997 6.99989M7.72686 2.01763L8.43909 2.62459C8.61852 2.7775 8.84132 2.86995 9.07633 2.8887L10.0091 2.96304C10.5575 3.0068 10.9931 3.44213 11.0369 3.99054L11.111 4.92347C11.1298 5.15848 11.2226 5.38159 11.3755 5.56103L11.9822 6.27306C12.339 6.69179 12.3391 7.30773 11.9822 7.72646L11.3755 8.4386C11.2226 8.61804 11.13 8.84124 11.1112 9.07624L11.0366 10.009C10.9928 10.5574 10.5579 10.993 10.0095 11.0368L9.07639 11.1112C8.84138 11.13 8.61837 11.2222 8.43894 11.3751L7.72686 11.9821C7.30813 12.3389 6.69181 12.339 6.27308 11.9822L5.56101 11.3752C5.38157 11.2223 5.15856 11.1299 4.92356 11.1111L3.99045 11.0368C3.44204 10.993 3.00711 10.5575 2.96335 10.0091L2.88873 9.0763C2.86997 8.8413 2.77732 8.61829 2.6244 8.43885L2.01771 7.72649C1.66087 7.30776 1.66071 6.69201 2.01755 6.27329L2.62478 5.56092C2.7777 5.38149 2.86946 5.15848 2.88821 4.92347L2.96284 3.99065C3.0066 3.44224 3.44278 3.00675 3.99119 2.96298L4.92327 2.88864C5.15828 2.86989 5.38139 2.77752 5.56083 2.6246L6.27314 2.01763C6.69187 1.66079 7.30813 1.66079 7.72686 2.01763Z" stroke="#5C5B54" stroke-linecap="round" stroke-linejoin="round"/>
</svg>
