<svg width="28" height="28" viewBox="0 0 28 28" fill="none" xmlns="http://www.w3.org/2000/svg">
<path d="M23.5599 11.1243C23.5599 13.9671 21.7405 16.4988 19.8503 18.3826C17.9344 20.2919 15.7957 21.684 14.8678 22.2495C14.3308 22.5766 13.6691 22.5766 13.1321 22.2495C12.2042 21.684 10.0655 20.2919 8.14962 18.3826C6.25937 16.4988 4.43998 13.9671 4.43994 11.1243C4.43994 9.50499 4.91477 8.19134 5.72032 7.23359C6.52373 6.27853 7.61687 5.72456 8.76695 5.5588C10.6543 5.28683 12.7088 6.05608 13.9999 7.79947C15.2911 6.05608 17.3455 5.28683 19.2329 5.5588C20.383 5.72456 21.4762 6.27853 22.2796 7.23359C23.0851 8.19134 23.5599 9.50499 23.5599 11.1243Z" fill="#FF2626"/>
</svg>
