<svg width="24" height="24" viewBox="0 0 24 24" fill="none" xmlns="http://www.w3.org/2000/svg">
<path d="M19.9986 9.12466C19.9986 7.81762 19.6198 6.87511 19.0841 6.23839C18.5463 5.59915 17.8102 5.22022 17.0095 5.10483C15.4005 4.87303 13.5516 5.713 12.7181 7.66914C12.5956 7.95688 12.3127 8.14352 11.9999 8.14352C11.6871 8.14352 11.4043 7.95688 11.2817 7.66914C10.4482 5.713 8.59935 4.87303 6.99037 5.10483C6.18963 5.22022 5.45352 5.59915 4.91568 6.23839C4.38007 6.87511 4.00122 7.81762 4.00122 9.12466C4.00126 11.3207 5.43561 13.4667 7.25138 15.2763C9.04164 17.0605 11.0619 18.3787 11.9437 18.9161C11.9667 18.9301 11.9858 18.9332 11.9999 18.9332C12.014 18.9332 12.0331 18.9301 12.0561 18.9161C12.938 18.3787 14.9582 17.0605 16.7485 15.2763C18.5642 13.4667 19.9986 11.3207 19.9986 9.12466ZM21.5589 9.12466C21.5589 11.9672 19.7397 14.4987 17.8496 16.3823C15.934 18.2913 13.7955 19.6833 12.8677 20.2487C12.3307 20.5758 11.6691 20.5758 11.1321 20.2487C10.2043 19.6833 8.06588 18.2913 6.15021 16.3823C4.26015 14.4987 2.44096 11.9672 2.44092 9.12466C2.44092 7.50555 2.91569 6.19203 3.72117 5.23438C4.52448 4.27942 5.61751 3.72552 6.76747 3.55977C8.65467 3.28783 10.7089 4.057 11.9999 5.80021C13.2909 4.057 15.3452 3.28783 17.2324 3.55977C18.3823 3.72552 19.4753 4.27942 20.2787 5.23438C21.0841 6.19203 21.5589 7.50555 21.5589 9.12466Z" fill="white"/>
</svg>
