<svg width="32" height="32" viewBox="0 0 32 32" fill="none" xmlns="http://www.w3.org/2000/svg">
<path d="M22.5602 9.16167C23.0384 9.65979 23.0384 10.4674 22.5602 10.9655L17.7296 15.9974L22.5653 21.0346C23.0434 21.5327 23.0433 22.3403 22.5653 22.8385C22.0871 23.3366 21.3118 23.3366 20.8336 22.8385L15.9979 17.8013L11.1664 22.8341C10.6882 23.332 9.91283 23.3321 9.43471 22.8341C8.95659 22.336 8.95673 21.5284 9.43471 21.0302L14.2662 15.9974L9.43978 10.9699C8.96159 10.4718 8.96159 9.6642 9.43978 9.16608C9.91799 8.66818 10.6934 8.66803 11.1715 9.16608L15.9979 14.1936L20.8285 9.16167C21.3067 8.66356 22.082 8.66356 22.5602 9.16167Z" fill="#181814"/>
</svg>
